<svg width="48" height="48" viewBox="0 0 48 48" fill="none" xmlns="http://www.w3.org/2000/svg">
<rect x="4" y="4" width="40" height="40" rx="20" fill="#002153"/>
<path d="M24 44C21.2333 44 18.6333 43.475 16.2 42.425C13.7667 41.375 11.65 39.95 9.85 38.15C8.05 36.35 6.625 34.2333 5.575 31.8C4.525 29.3667 4 26.7667 4 24C4 21.2333 4.525 18.6333 5.575 16.2C6.625 13.7667 8.05 11.65 9.85 9.85C11.65 8.05 13.7667 6.625 16.2 5.575C18.6333 4.525 21.2333 4 24 4C26.7667 4 29.3667 4.525 31.8 5.575C34.2333 6.625 36.35 8.05 38.15 9.85C39.95 11.65 41.375 13.7667 42.425 16.2C43.475 18.6333 44 21.2333 44 24C44 26.7667 43.475 29.3667 42.425 31.8C41.375 34.2333 39.95 36.35 38.15 38.15C36.35 39.95 34.2333 41.375 31.8 42.425C29.3667 43.475 26.7667 44 24 44ZM21.85 40.95V36.85C20.6833 36.85 19.7 36.4167 18.9 35.55C18.1 34.6833 17.7 33.6667 17.7 32.5V30.3L7.45 20.05C7.28333 20.7167 7.16667 21.375 7.1 22.025C7.03333 22.675 7 23.3333 7 24C7 28.3333 8.40833 32.1167 11.225 35.35C14.0417 38.5833 17.5833 40.45 21.85 40.95ZM36.55 35.55C38.0167 33.95 39.125 32.1583 39.875 30.175C40.625 28.1917 41 26.1333 41 24C41 20.4667 40.0333 17.2583 38.1 14.375C36.1667 11.4917 33.5833 9.38333 30.35 8.05V8.95C30.35 10.1167 29.95 11.1333 29.15 12C28.35 12.8667 27.3667 13.3 26.2 13.3H21.85V17.65C21.85 18.2167 21.625 18.6833 21.175 19.05C20.725 19.4167 20.2167 19.6 19.65 19.6H15.5V24H28.4C28.9667 24 29.4333 24.2167 29.8 24.65C30.1667 25.0833 30.35 25.5833 30.35 26.15V32.5H32.5C33.4667 32.5 34.3167 32.7833 35.05 33.35C35.7833 33.9167 36.2833 34.65 36.55 35.55Z" fill="#BB1797"/>
</svg>
